<?xml version="1.0" encoding="UTF-8" standalone="no"?>
<svg
   xmlns:dc="http://purl.org/dc/elements/1.1/"
   xmlns:cc="http://creativecommons.org/ns#"
   xmlns:rdf="http://www.w3.org/1999/02/22-rdf-syntax-ns#"
   xmlns:svg="http://www.w3.org/2000/svg"
   xmlns="http://www.w3.org/2000/svg"
   xmlns:sodipodi="http://sodipodi.sourceforge.net/DTD/sodipodi-0.dtd"
   xmlns:inkscape="http://www.inkscape.org/namespaces/inkscape"
   width="210mm"
   height="297mm"
   viewBox="0 0 210 297"
   version="1.1"
   id="svg8"
   sodipodi:docname="surpass_logo_diversity.svg"
   inkscape:version="0.92.4 (5da689c313, 2019-01-14)">
  <sodipodi:namedview
     pagecolor="#ffffff"
     bordercolor="#666666"
     borderopacity="1"
     objecttolerance="10"
     gridtolerance="10"
     guidetolerance="10"
     inkscape:pageopacity="0"
     inkscape:pageshadow="2"
     inkscape:window-width="1920"
     inkscape:window-height="1020"
     id="namedview32"
     showgrid="false"
     inkscape:zoom="0.2102413"
     inkscape:cx="396.85039"
     inkscape:cy="561.25984"
     inkscape:window-x="-8"
     inkscape:window-y="-8"
     inkscape:window-maximized="1"
     inkscape:current-layer="svg8" />
  <defs
     id="defs2">
    <clipPath
       clipPathUnits="userSpaceOnUse"
       id="clipPath1316">
      <g
         id="g1348">
        <path
           id="path1318"
           style="fill:#9cd976;fill-opacity:1;stroke:none;stroke-width:0.716821;stroke-linejoin:round;stroke-miterlimit:4;stroke-dasharray:none;stroke-dashoffset:0;stroke-opacity:1"
           d="M 118.57329,106.96479 101.03072,117.21006 83.386765,107.14038 83.285382,86.825433 100.82795,76.580158 118.47191,86.649834 Z" />
        <path
           id="path1320"
           style="fill:#276fb7;fill-opacity:1;stroke:none;stroke-width:0.716821;stroke-linejoin:round;stroke-miterlimit:4;stroke-dasharray:none;stroke-dashoffset:0;stroke-opacity:1"
           d="m 154.1697,106.78889 -17.54258,10.24527 -17.64395,-10.06968 -0.10138,-20.314944 17.54257,-10.245275 17.64395,10.069676 z" />
        <path
           id="path1322"
           style="fill:#5ec9ce;fill-opacity:1;stroke:none;stroke-width:0.716821;stroke-linejoin:round;stroke-miterlimit:4;stroke-dasharray:none;stroke-dashoffset:0;stroke-opacity:1"
           d="m 101.07337,137.95918 -17.569013,10.19987 -17.617848,-10.11528 -0.04884,-20.31515 17.569011,-10.19986 17.61785,10.11528 z" />
        <path
           id="path1324"
           style="fill:#1e97d4;fill-opacity:1;stroke:none;stroke-width:0.716821;stroke-linejoin:round;stroke-miterlimit:4;stroke-dasharray:none;stroke-dashoffset:0;stroke-opacity:1"
           d="m 118.79214,168.86237 -17.54258,10.24527 -17.643949,-10.06968 -0.101383,-20.31495 17.542572,-10.24527 17.64395,10.06967 z" />
        <path
           id="path1326"
           style="fill:#72bf44;fill-opacity:1;stroke:none;stroke-width:0.716821;stroke-linejoin:round;stroke-miterlimit:4;stroke-dasharray:none;stroke-dashoffset:0;stroke-opacity:1"
           d="m 154.46575,168.71434 -17.54257,10.24528 -17.64395,-10.06968 -0.10138,-20.31495 17.54257,-10.24527 17.64395,10.06967 z" />
        <g
           id="g1346"
           transform="matrix(0.28222222,0,0,0.28222222,11.646897,-11.199602)">
          <g
             aria-label="SURP"
             transform="scale(0.91155365,1.0970281)"
             id="g1336"
             style="font-style:normal;font-variant:normal;font-weight:bold;font-stretch:normal;font-size:50.465px;line-height:0%;font-family:sans-serif;-inkscape-font-specification:'sans-serif, Bold';font-variant-ligatures:normal;font-variant-caps:normal;font-variant-numeric:normal;font-feature-settings:normal;text-align:start;letter-spacing:-0.01875px;word-spacing:0px;writing-mode:lr-tb;text-anchor:start;fill:#000000;fill-opacity:1;stroke:none;stroke-width:1.90191px;stroke-linecap:butt;stroke-linejoin:miter;stroke-opacity:1">
            <path
               d="m 386.56778,455.93677 q 0,5.42104 -4.60789,8.82152 -4.58324,3.37583 -12.4684,3.37583 -4.55861,0 -7.95908,-0.78851 -3.37583,-0.81316 -6.33277,-2.04522 v -8.79687 h 1.03493 q 2.93229,2.3409 6.55454,3.5976 3.64688,1.25669 6.99807,1.25669 0.86244,0 2.26699,-0.14784 1.40454,-0.14785 2.29162,-0.49282 1.08421,-0.44354 1.77416,-1.10885 0.71459,-0.66531 0.71459,-1.97129 0,-1.20742 -1.03492,-2.06986 -1.01029,-0.88708 -2.98158,-1.35526 -2.06985,-0.49282 -4.38612,-0.91172 -2.29162,-0.44354 -4.31219,-1.10885 -4.63253,-1.50311 -6.67774,-4.06578 -2.02058,-2.58732 -2.02058,-6.40669 0,-5.12535 4.58325,-8.35334 4.60789,-3.25263 11.82774,-3.25263 3.62224,0 7.14592,0.7146 3.54832,0.68995 6.13564,1.74951 v 8.45191 h -1.01029 q -2.2177,-1.77416 -5.44569,-2.95694 -3.20334,-1.20741 -6.55453,-1.20741 -1.18277,0 -2.36555,0.17249 -1.15813,0.14784 -2.24234,0.59138 -0.961,0.36962 -1.65095,1.13349 -0.68996,0.73924 -0.68996,1.70024 0,1.45383 1.10885,2.24234 1.10885,0.76388 4.18899,1.40455 2.02058,0.41889 3.86866,0.81315 1.87272,0.39426 4.0165,1.08421 4.21363,1.3799 6.20956,3.77009 2.02057,2.36555 2.02057,6.16028 z"
               id="path1328" />
            <path
               d="m 425.1863,454.18725 q 0,6.80095 -4.13971,10.42319 -4.13971,3.62225 -12.19735,3.62225 -8.05764,0 -12.19735,-3.62225 -4.11507,-3.62224 -4.11507,-10.39855 v -23.4337 h 9.51147 v 22.8916 q 0,3.81937 1.60167,5.69209 1.60168,1.87273 5.19928,1.87273 3.54832,0 5.17463,-1.7988 1.65096,-1.7988 1.65096,-5.76602 v -22.8916 h 9.51147 z"
               id="path1330" />
            <path
               d="m 454.61368,442.01454 q 0,-1.3799 -0.56675,-2.36555 -0.56674,-0.98564 -1.94665,-1.55239 -0.961,-0.39425 -2.24234,-0.46818 -1.28133,-0.0986 -2.98157,-0.0986 h -3.42512 v 9.88108 h 2.90766 q 2.26698,0 3.79473,-0.22177 1.52775,-0.22177 2.56267,-1.01028 0.98565,-0.76388 1.42919,-1.6756 0.46818,-0.93636 0.46818,-2.48875 z m 14.76002,25.45427 h -11.55668 l -10.00429,-13.45405 h -4.36148 v 13.45405 h -9.4129 v -36.69062 h 15.86888 q 3.25262,0 5.59353,0.36962 2.3409,0.36962 4.38612,1.60167 2.06985,1.23206 3.27726,3.20335 1.23206,1.94665 1.23206,4.90358 0,4.06578 -1.89737,6.62846 -1.87272,2.56267 -5.37176,4.26291 z"
               id="path1332" />
            <path
               d="m 503.82787,442.35952 q 0,2.46411 -0.86244,4.82965 -0.86244,2.34091 -2.46411,3.94258 -2.19306,2.16842 -4.90358,3.27727 -2.68588,1.10885 -6.70239,1.10885 h -5.88922 v 11.95094 h -9.46219 v -36.69062 h 15.57318 q 3.49904,0 5.88923,0.61603 2.41483,0.59139 4.26291,1.7988 2.2177,1.45383 3.37584,3.72081 1.18277,2.26698 1.18277,5.44569 z m -9.78252,0.22177 q 0,-1.55239 -0.8378,-2.66124 -0.8378,-1.13349 -1.94665,-1.57703 -1.47847,-0.59139 -2.88301,-0.64067 -1.40454,-0.0739 -3.74545,-0.0739 h -1.62631 v 10.98994 h 2.71052 q 2.41483,0 3.96722,-0.29569 1.57703,-0.2957 2.6366,-1.18278 0.91172,-0.78851 1.30598,-1.87272 0.4189,-1.10885 0.4189,-2.68588 z"
               id="path1334" />
          </g>
          <g
             aria-label="ASS"
             transform="scale(0.91155367,1.0970281)"
             id="g1344"
             style="font-style:normal;font-variant:normal;font-weight:bold;font-stretch:normal;font-size:50.465px;line-height:0%;font-family:sans-serif;-inkscape-font-specification:'sans-serif, Bold';font-variant-ligatures:normal;font-variant-caps:normal;font-variant-numeric:normal;font-feature-settings:normal;text-align:start;letter-spacing:-0.01875px;word-spacing:0px;writing-mode:lr-tb;text-anchor:start;fill:#000000;fill-opacity:1;stroke:none;stroke-width:1.90191px;stroke-linecap:butt;stroke-linejoin:miter;stroke-opacity:1">
            <path
               d="m 539.19965,467.46881 h -9.78252 l -2.53804,-7.41697 H 513.2772 l -2.53804,7.41697 h -9.53611 l 13.55261,-36.69062 h 10.89137 z m -14.61218,-14.144 -4.50933,-13.15835 -4.50932,13.15835 z"
               id="path1338" />
            <path
               d="m 573.87559,455.93677 q 0,5.42104 -4.60789,8.82152 -4.58325,3.37583 -12.46841,3.37583 -4.5586,0 -7.95907,-0.78851 -3.37584,-0.81316 -6.33277,-2.04522 v -8.79687 h 1.03493 q 2.93229,2.3409 6.55453,3.5976 3.64689,1.25669 6.99808,1.25669 0.86244,0 2.26698,-0.14784 1.40454,-0.14785 2.29162,-0.49282 1.08421,-0.44354 1.77416,-1.10885 0.7146,-0.66531 0.7146,-1.97129 0,-1.20742 -1.03493,-2.06986 -1.01029,-0.88708 -2.98158,-1.35526 -2.06985,-0.49282 -4.38611,-0.91172 -2.29163,-0.44354 -4.3122,-1.10885 -4.63253,-1.50311 -6.67774,-4.06578 -2.02057,-2.58732 -2.02057,-6.40669 0,-5.12535 4.58325,-8.35334 4.60788,-3.25263 11.82773,-3.25263 3.62224,0 7.14592,0.7146 3.54832,0.68995 6.13564,1.74951 v 8.45191 h -1.01029 q -2.2177,-1.77416 -5.44568,-2.95694 -3.20335,-1.20741 -6.55454,-1.20741 -1.18277,0 -2.36554,0.17249 -1.15814,0.14784 -2.24235,0.59138 -0.961,0.36962 -1.65095,1.13349 -0.68995,0.73924 -0.68995,1.70024 0,1.45383 1.10885,2.24234 1.10885,0.76388 4.18899,1.40455 2.02057,0.41889 3.86865,0.81315 1.87273,0.39426 4.0165,1.08421 4.21363,1.3799 6.20956,3.77009 2.02058,2.36555 2.02058,6.16028 z"
               id="path1340" />
            <path
               d="m 609.73429,455.93677 q 0,5.42104 -4.60788,8.82152 -4.58325,3.37583 -12.46841,3.37583 -4.5586,0 -7.95908,-0.78851 -3.37583,-0.81316 -6.33276,-2.04522 v -8.79687 h 1.03492 q 2.9323,2.3409 6.55454,3.5976 3.64688,1.25669 6.99808,1.25669 0.86243,0 2.26698,-0.14784 1.40454,-0.14785 2.29162,-0.49282 1.08421,-0.44354 1.77416,-1.10885 0.71459,-0.66531 0.71459,-1.97129 0,-1.20742 -1.03492,-2.06986 -1.01029,-0.88708 -2.98158,-1.35526 -2.06985,-0.49282 -4.38612,-0.91172 -2.29162,-0.44354 -4.31219,-1.10885 -4.63253,-1.50311 -6.67774,-4.06578 -2.02057,-2.58732 -2.02057,-6.40669 0,-5.12535 4.58324,-8.35334 4.60789,-3.25263 11.82774,-3.25263 3.62224,0 7.14592,0.7146 3.54832,0.68995 6.13564,1.74951 v 8.45191 h -1.01029 q -2.2177,-1.77416 -5.44568,-2.95694 -3.20335,-1.20741 -6.55454,-1.20741 -1.18277,0 -2.36555,0.17249 -1.15813,0.14784 -2.24234,0.59138 -0.961,0.36962 -1.65095,1.13349 -0.68995,0.73924 -0.68995,1.70024 0,1.45383 1.10885,2.24234 1.10885,0.76388 4.18899,1.40455 2.02057,0.41889 3.86865,0.81315 1.87272,0.39426 4.0165,1.08421 4.21363,1.3799 6.20956,3.77009 2.02057,2.36555 2.02057,6.16028 z"
               id="path1342" />
          </g>
        </g>
      </g>
    </clipPath>
  </defs>
  <metadata
     id="metadata5">
    <rdf:RDF>
      <cc:Work
         rdf:about="">
        <dc:format>image/svg+xml</dc:format>
        <dc:type
           rdf:resource="http://purl.org/dc/dcmitype/StillImage" />
        <dc:title />
      </cc:Work>
    </rdf:RDF>
  </metadata>
  <g
     id="layer1"
     transform="matrix(7.9374999,0,0,7.9374999,-812.88504,-887.31921)"
     inkscape:export-xdpi="96"
     inkscape:export-ydpi="96">
    <g
       id="g1314"
       clip-path="url(#clipPath1316)"
       transform="matrix(0.38959813,0,0,0.39058098,71.522386,77.945832)">
      <path
         id="rect1181"
         style="fill:#ff1d25;fill-opacity:1;stroke:none;stroke-width:0.977135;stroke-miterlimit:4;stroke-dasharray:none"
         d="M 47.56554,76.696098 H 187.88388 V 93.499741 H 47.56554 Z"
         inkscape:connector-curvature="0" />
      <path
         id="rect1192"
         style="fill:#fe941d;fill-opacity:1;stroke:none;stroke-width:0.99342299;stroke-miterlimit:4;stroke-dasharray:none"
         d="M 47.56554,93.499741 H 187.88388 V 110.86816 H 47.56554 Z"
         inkscape:connector-curvature="0" />
      <path
         id="rect1194"
         style="fill:#ffff00;fill-opacity:1;stroke:none;stroke-width:0.98089898;stroke-miterlimit:4;stroke-dasharray:none"
         d="m 47.56554,110.86816 h 140.31834 v 16.93333 H 47.56554 Z"
         inkscape:connector-curvature="0" />
      <path
         id="rect1196"
         style="fill:#06bd02;fill-opacity:1;stroke:none;stroke-width:1.01192999;stroke-miterlimit:4;stroke-dasharray:none"
         d="m 47.56554,127.80149 h 140.31834 v 18.02173 H 47.56554 Z"
         inkscape:connector-curvature="0" />
      <path
         id="rect1198"
         style="fill:#011a98;fill-opacity:1;stroke:none;stroke-width:0.98658502;stroke-miterlimit:4;stroke-dasharray:none"
         d="m 47.56554,145.59425 h 140.31834 v 17.13019 H 47.56554 Z"
         inkscape:connector-curvature="0" />
      <path
         id="rect1200"
         style="fill:#760188;fill-opacity:1;stroke:none;stroke-width:0.97816998;stroke-miterlimit:4;stroke-dasharray:none"
         d="m 47.56554,162.72444 h 140.31834 v 16.83924 H 47.56554 Z"
         inkscape:connector-curvature="0" />
      <path
         id="path1294"
         style="fill:#011a98;fill-opacity:1;stroke:none;stroke-width:0.70130998;stroke-miterlimit:4;stroke-dasharray:none"
         d="M 101.96746,119.3639 H 242.2858 v 8.65591 H 101.96746 Z"
         inkscape:connector-curvature="0" />
      <path
         id="path1296"
         style="fill:#760188;fill-opacity:1;stroke:none;stroke-width:0.681252;stroke-miterlimit:4;stroke-dasharray:none"
         d="M 101.96746,128.01981 H 242.2858 v 8.16788 H 101.96746 Z"
         inkscape:connector-curvature="0" />
    </g>
  </g>
</svg>
